<svg width="92" height="24" viewBox="0 0 92 24" fill="none" xmlns="http://www.w3.org/2000/svg">
<path d="M12.408 0L15.432 16.56L17.352 16.872L17.304 17.856H10.608L10.656 16.872L12.72 16.584L12.072 12.648H5.592L3.792 16.584L5.976 16.872L5.88 17.856H0L0.0959999 16.872L1.728 16.584L9.792 0H12.408ZM6.216 11.28H11.88L10.656 3.6L10.512 1.896L6.216 11.28Z" fill="black"/>
<path d="M21.1494 6.096C21.5654 5.568 22.0854 5.128 22.7094 4.776C23.3494 4.408 24.0454 4.224 24.7974 4.224C26.1254 4.224 27.1254 4.68 27.7974 5.592C28.4854 6.504 28.8294 7.744 28.8294 9.312C28.8294 10.72 28.5174 12.104 27.8934 13.464C27.2694 14.824 26.3734 15.936 25.2054 16.8C24.0534 17.664 22.7254 18.096 21.2214 18.096C20.9334 18.096 20.3734 18.024 19.5414 17.88L18.7014 23.952H16.2774L18.7014 6.168L17.4294 5.616L17.5974 4.776L20.8374 4.224L21.3414 4.488L21.1494 6.096ZM19.7574 16.344C20.2054 16.632 20.7894 16.776 21.5094 16.776C22.5014 16.776 23.3494 16.408 24.0534 15.672C24.7574 14.92 25.2854 13.976 25.6374 12.84C25.9894 11.704 26.1654 10.552 26.1654 9.384C26.1654 8.28 25.9734 7.416 25.5894 6.792C25.2214 6.152 24.7014 5.832 24.0294 5.832C23.4054 5.832 22.8214 6.024 22.2774 6.408C21.7334 6.792 21.2934 7.24 20.9574 7.752L19.7574 16.344Z" fill="black"/>
<path d="M39.3456 15.6C39.3296 15.664 39.3216 15.752 39.3216 15.864C39.3216 16.104 39.3616 16.28 39.4416 16.392C39.5376 16.504 39.6576 16.56 39.8016 16.56C40.0576 16.56 40.4096 16.36 40.8576 15.96L41.1936 16.584C41.0176 16.872 40.6816 17.2 40.1856 17.568C39.7056 17.92 39.1616 18.096 38.5536 18.096C38.0576 18.096 37.6656 17.976 37.3776 17.736C37.0896 17.48 36.9536 17.088 36.9696 16.56L37.0656 15.864C36.5536 16.488 35.9536 17.016 35.2656 17.448C34.5936 17.88 33.8656 18.096 33.0816 18.096C31.7856 18.096 30.8176 17.64 30.1776 16.728C29.5376 15.8 29.2176 14.584 29.2176 13.08C29.2176 11.704 29.5216 10.336 30.1296 8.976C30.7376 7.6 31.6256 6.464 32.7936 5.568C33.9616 4.672 35.3296 4.224 36.8976 4.224C37.2656 4.224 37.6816 4.272 38.1456 4.368C38.6096 4.448 39.0336 4.544 39.4176 4.656L40.8816 4.248L39.3456 15.6ZM38.1696 5.928C37.7536 5.672 37.2416 5.544 36.6336 5.544C35.6096 5.544 34.7376 5.92 34.0176 6.672C33.2976 7.424 32.7536 8.368 32.3856 9.504C32.0336 10.624 31.8576 11.752 31.8576 12.888C31.8576 14.04 32.0256 14.936 32.3616 15.576C32.7136 16.2 33.2256 16.512 33.8976 16.512C34.4576 16.512 35.0176 16.304 35.5776 15.888C36.1536 15.456 36.6416 14.968 37.0416 14.424L38.1696 5.928Z" fill="black"/>
<path d="M45.8514 7.632C46.0434 7.104 46.3474 6.584 46.7634 6.072C47.1954 5.544 47.7074 5.112 48.2994 4.776C48.8914 4.424 49.5154 4.248 50.1714 4.248C50.5554 4.248 50.8114 4.304 50.9394 4.416L50.3874 7.176C50.1474 7 49.7554 6.912 49.2114 6.912C48.5554 6.912 47.8994 7.12 47.2434 7.536C46.6034 7.936 46.1154 8.504 45.7794 9.24L44.6514 17.856H42.1794L43.6914 6.312L42.4674 5.712L42.6594 4.8L45.6114 4.248L46.1154 4.536L45.9474 6.696L45.8514 7.632Z" fill="black"/>
<path d="M60.2546 15.6C60.2386 15.664 60.2306 15.752 60.2306 15.864C60.2306 16.104 60.2706 16.28 60.3506 16.392C60.4466 16.504 60.5666 16.56 60.7106 16.56C60.9666 16.56 61.3186 16.36 61.7666 15.96L62.1026 16.584C61.9266 16.872 61.5906 17.2 61.0946 17.568C60.6146 17.92 60.0706 18.096 59.4626 18.096C58.9666 18.096 58.5746 17.976 58.2866 17.736C57.9986 17.48 57.8626 17.088 57.8786 16.56L57.9746 15.864C57.4626 16.488 56.8626 17.016 56.1746 17.448C55.5026 17.88 54.7746 18.096 53.9906 18.096C52.6946 18.096 51.7266 17.64 51.0866 16.728C50.4466 15.8 50.1266 14.584 50.1266 13.08C50.1266 11.704 50.4306 10.336 51.0386 8.976C51.6466 7.6 52.5346 6.464 53.7026 5.568C54.8706 4.672 56.2386 4.224 57.8066 4.224C58.1746 4.224 58.5906 4.272 59.0546 4.368C59.5186 4.448 59.9426 4.544 60.3266 4.656L61.7906 4.248L60.2546 15.6ZM59.0786 5.928C58.6626 5.672 58.1506 5.544 57.5426 5.544C56.5186 5.544 55.6466 5.92 54.9266 6.672C54.2066 7.424 53.6626 8.368 53.2946 9.504C52.9426 10.624 52.7666 11.752 52.7666 12.888C52.7666 14.04 52.9346 14.936 53.2706 15.576C53.6226 16.2 54.1346 16.512 54.8066 16.512C55.3666 16.512 55.9266 16.304 56.4866 15.888C57.0626 15.456 57.5506 14.968 57.9506 14.424L59.0786 5.928Z" fill="black"/>
<path d="M66.0885 13.632C65.9765 14.368 65.9205 14.952 65.9205 15.384C65.9205 15.768 65.9925 16.04 66.1365 16.2C66.2965 16.36 66.5685 16.44 66.9525 16.44C67.2885 16.44 67.6805 16.344 68.1285 16.152C68.5925 15.96 68.9525 15.76 69.2085 15.552L69.4485 16.368C69.0965 16.768 68.5445 17.16 67.7925 17.544C67.0405 17.912 66.2645 18.096 65.4645 18.096C64.8085 18.096 64.2885 17.936 63.9045 17.616C63.5365 17.28 63.3525 16.768 63.3525 16.08C63.3525 15.776 63.4085 15.136 63.5205 14.16L64.6005 6.048H63.1605L63.3765 5.064L64.8645 4.56C65.2165 4.176 65.7205 3.08 66.3765 1.272H67.7205L67.3125 4.536H70.3845L70.1925 6.048H67.1205L66.0885 13.632Z" fill="black"/>
<path d="M73.3232 11.928C73.1632 13.24 73.0832 14.12 73.0832 14.568C73.0832 15.32 73.2112 15.84 73.4672 16.128C73.7232 16.416 74.1152 16.56 74.6432 16.56C75.2192 16.56 75.8112 16.36 76.4192 15.96C77.0272 15.544 77.5472 15.048 77.9792 14.472L79.3232 4.344H81.8192L80.2832 15.696L80.2592 15.96C80.2592 16.152 80.2912 16.304 80.3552 16.416C80.4352 16.512 80.5312 16.56 80.6432 16.56C80.9632 16.56 81.3712 16.32 81.8672 15.84L82.1792 16.488C81.9872 16.792 81.6272 17.136 81.0992 17.52C80.5712 17.888 79.9872 18.072 79.3472 18.072C78.8512 18.072 78.4752 17.944 78.2192 17.688C77.9632 17.432 77.8512 17.072 77.8832 16.608C77.8832 16.64 77.9072 16.368 77.9552 15.792L77.9312 15.768C76.6512 17.32 75.2112 18.096 73.6112 18.096C72.6992 18.096 71.9632 17.856 71.4032 17.376C70.8432 16.88 70.5552 16.072 70.5392 14.952C70.5392 14.2 70.6912 12.808 70.9952 10.776L71.6192 6.312L70.3472 5.616L70.5152 4.704L73.7792 4.248L74.2832 4.512L73.4672 10.872L73.3232 11.928Z" fill="black"/>
<path d="M82.507 6.576C82.651 6.384 82.971 6.176 83.467 5.952C83.947 5.728 84.499 5.616 85.123 5.616C85.843 5.616 86.419 5.776 86.851 6.096C87.283 6.4 87.499 6.848 87.499 7.44C87.499 7.952 87.323 8.424 86.971 8.856C86.619 9.272 86.099 9.728 85.411 10.224C84.851 10.64 84.395 11.016 84.043 11.352C83.691 11.672 83.387 12.08 83.131 12.576C82.875 13.056 82.747 13.6 82.747 14.208C82.747 15.04 82.971 15.752 83.419 16.344C83.867 16.92 84.475 17.36 85.243 17.664C85.995 17.952 86.819 18.096 87.715 18.096C88.435 18.096 89.155 18.016 89.875 17.856C90.595 17.696 91.067 17.52 91.291 17.328L91.087 16.452L90.883 15.576C90.563 15.832 90.107 16.072 89.515 16.296C88.923 16.52 88.307 16.632 87.667 16.632C86.995 16.632 86.419 16.488 85.939 16.2C85.459 15.912 85.219 15.44 85.219 14.784C85.219 14.224 85.411 13.744 85.795 13.344C86.179 12.944 86.747 12.48 87.499 11.952C89.131 10.816 89.947 9.504 89.947 8.016C89.947 7.264 89.739 6.6 89.323 6.024C88.891 5.448 88.307 5.008 87.571 4.704C86.835 4.384 86.019 4.224 85.123 4.224C84.547 4.224 83.963 4.28 83.371 4.392C82.763 4.488 82.339 4.584 82.099 4.68L82.507 6.576Z" fill="black"/>
</svg>
